<?xml version="1.0" encoding="utf-8"?>
<!-- Generator: Adobe Illustrator 25.0.1, SVG Export Plug-In . SVG Version: 6.00 Build 0) -->
<svg version="1.1" id="layer_1" xmlns="http://www.w3.org/2000/svg" xmlns:xlink="http://www.w3.org/1999/xlink" x="0px" y="0px"
	 viewBox="0 0 584.7 488.8" style="enable-background:new 0 0 584.7 488.8;" xml:space="preserve">
<style type="text/css">
	.st0{fill:none;stroke:url(#SVGID_1_);stroke-width:18;stroke-linecap:round;stroke-linejoin:round;}
	.st1{fill:none;stroke:url(#SVGID_2_);stroke-width:18;stroke-linecap:round;stroke-linejoin:round;}
	.st2{fill:url(#SVGID_3_);}
	.st3{fill:#FFFFFF;}
	.st4{fill:url(#SVGID_4_);}
	.st5{fill:url(#SVGID_5_);}
	.st6{font-family:'Rockwell-Bold';}
	.st7{font-size:173.3141px;}
</style>
<desc id="desc">Vector recreation of the aiida-epw logo with cloud, waveform, arrows, and wordmark.</desc>
<g id="icon" transform="translate(0 0)">
	<linearGradient id="SVGID_1_" gradientUnits="userSpaceOnUse" x1="84.4314" y1="-283.4182" x2="534.1647" y2="-69.0594" gradientTransform="matrix(1 0 0 1 0 410)">
		<stop offset="0" style="stop-color:#19C400"/>
		<stop offset="0.5" style="stop-color:#FF8506"/>
		<stop offset="1" style="stop-color:#0875DF"/>
	</linearGradient>
	<path class="st0" d="M55.1,332.1c-17.2-43.8,6.9-73,34.4-93.1c27.5-20.1,7.8-46.6,0.9-71.2c-8.5-35.6,16.3-64.8,46.4-70.2
		c30.7-5.6,37.7,3.9,59.2-5.4c29.4-12.7,21.3-42.7,50.7-62.3c26.9-17.9,70.4-17.3,96,1.8c26.5,19.8,18.1,47.9,44.4,60
		c21.6,10,32-6.6,59.1,4.2c19.7,7.9,35.5,25.6,42.2,44.9c0.7,2.2,4.1,12.4,3.8,26.1c-0.7,28.5-16.7,41.7-9.7,57
		c2.3,5.1,4.4,4.3,13.4,12.8c4.7,4.4,25.4,23.9,32.6,52.3c2.1,8.4,4.8,24.6-0.7,45.6"/>
	<linearGradient id="SVGID_2_" gradientUnits="userSpaceOnUse" x1="146.9456" y1="-6.0949" x2="443.9193" y2="-7.1407" gradientTransform="matrix(1 0 0 1 0 410)">
		<stop offset="0" style="stop-color:#19C400"/>
		<stop offset="1" style="stop-color:#0875DF"/>
	</linearGradient>
	<path class="st1" d="M146.5,403.4h297.8"/>
	<linearGradient id="SVGID_3_" gradientUnits="userSpaceOnUse" x1="235.7392" y1="-386.0263" x2="347.7392" y2="-240.0264" gradientTransform="matrix(1 0 0 1 0 410)">
		<stop offset="0" style="stop-color:#FF950B"/>
		<stop offset="1" style="stop-color:#FF7300"/>
	</linearGradient>
	<circle class="st2" cx="293.2" cy="98.9" r="75"/>
	<path class="st3" d="M271,57.4l68,34l-24,12l34,60l-30,15l-29-60l-23,15L271,57.4z"/>
	<linearGradient id="SVGID_4_" gradientUnits="userSpaceOnUse" x1="22.0757" y1="-75.2233" x2="157.0757" y2="60.7767" gradientTransform="matrix(1 0 0 1 0 410)">
		<stop offset="0" style="stop-color:#28C800"/>
		<stop offset="1" style="stop-color:#19BA00"/>
	</linearGradient>
	<circle class="st4" cx="89.3" cy="402.5" r="75"/>
	<path class="st3" d="M67,443.6l-3.6-74.2l23.3,14.3l34.5-60.3l28,18.5l-37.8,56.5l24,11.6L67,443.6z"/>
	<linearGradient id="SVGID_5_" gradientUnits="userSpaceOnUse" x1="430.2665" y1="-71.4767" x2="567.2665" y2="68.5233" gradientTransform="matrix(1 0 0 1 0 410)">
		<stop offset="0" style="stop-color:#087CE8"/>
		<stop offset="1" style="stop-color:#0768DC"/>
	</linearGradient>
	<circle class="st5" cx="494.1" cy="403.7" r="75"/>
	<path class="st3" d="M475.2,365.1l65.4,38.2l-65.4,39.2v-23.9h-56.2V388h56.2V365.1z"/>
</g>
<g id="wordmark">
	<text transform="matrix(0.9112 0 0 1 90.2893 327.4821)" class="st6 st7">EPW</text>
</g>
</svg>
